# xmcd
#
# Track frame offsets:
#	180
#	12461
#	23829
#	35158
#	47435
#	62215
#	75268
#	85453
#	102436
#	113491
#	123047
#	137761
#
# Disc length: 1999 seconds
#
# Revision: 2
# Processed by: cddbd v1.5PL3 Copyright (c) Steve Scherf et al.
# Submitted via: audiograbber 1.80
#
DISCID=9207cd0c
DTITLE=Bria and the Ruby Rebels - ...by Skratch
DYEAR=1900
DGENRE=
TTITLE0=Still in My Honky Tonk Heart
TTITLE1=Something Strange
TTITLE2=Sweet Transgression
TTITLE3=Gonna Run
TTITLE4=Your Cowboy
TTITLE5=Little Bit of Pleasure
TTITLE6=B. V. and C
TTITLE7=Rise Sister
TTITLE8=Way Past Party Time
TTITLE9=Cold Wind's a'Blowin'
TTITLE10=No Lover Be
TTITLE11=Intimate Love
EXTD=
EXTT0=
EXTT1=
EXTT2=
EXTT3=
EXTT4=
EXTT5=
EXTT6=
EXTT7=
EXTT8=
EXTT9=
EXTT10=
EXTT11=
PLAYORDER=
